<?xml version="1.0" encoding="utf-8"?>
<!-- Generator: Adobe Illustrator 24.2.1, SVG Export Plug-In . SVG Version: 6.00 Build 0)  -->
<svg version="1.1" id="Layer_1" xmlns="http://www.w3.org/2000/svg" xmlns:xlink="http://www.w3.org/1999/xlink" x="0px" y="0px"
	 viewBox="0 0 340 372.3" style="enable-background:new 0 0 340 372.3;" xml:space="preserve">
<style type="text/css">
	.st0{fill:#33FF88;}
	.st1{fill-rule:evenodd;clip-rule:evenodd;fill:#00C853;}
</style>
<path class="st0" d="M224.4,251.7c-19.8,49.6-100.8,37.5-100.8-5.6V122.6c0-44.6,80-54.7,104.3-10.1l73.9-29.9
	C273,18.7,219.9,0,175.8,0C103.9,0,33,41.5,33,122.6v123.6c0,81.5,70.9,122.6,141.3,122.6c45.1,0,99.3-22.3,129.2-80.5L224.4,251.7z
	"/>
<path class="st1" d="M126.7,9.2h83.6L340,372.3h-98.5l-23.6-72.8H121l-22.6,72.8H0L53.9,218h87.7h54.4l-25.1-106.2h-2.6l-15.6,62.3
	l-61.8-62L126.7,9.2z"/>
<path class="st0" d="M303.4,288.2l-79-36.5c-9.1,28.2-23.1,37.1-54.9,47.8l66.4,55.3C262.1,342.4,286.6,321,303.4,288.2z"/>
</svg>
